<?xml version="1.0" encoding="UTF-8" standalone="no"?>
<!DOCTYPE svg PUBLIC "-//W3C//DTD SVG 1.1//EN" "http://www.w3.org/Graphics/SVG/1.1/DTD/svg11.dtd">
<svg width="100%" height="100%" viewBox="0 0 129 129" version="1.1" xmlns="http://www.w3.org/2000/svg" xmlns:xlink="http://www.w3.org/1999/xlink" xml:space="preserve" xmlns:serif="http://www.serif.com/" style="fill-rule:evenodd;clip-rule:evenodd;stroke-linejoin:round;stroke-miterlimit:2;">
    <g transform="matrix(2,0,0,2,-1162.8,-536)">
        <path d="M581.4,300.25C581.4,300.167 581.4,300.083 581.4,300C581.4,294.124 582.987,288.616 585.756,283.881C588.393,279.345 592.18,275.4 596.988,272.529C601.788,269.654 607.402,268 613.4,268C631.061,268 645.4,282.339 645.4,300L645.4,324.017C645.4,328.426 641.826,332 637.417,332C633.411,332 629.4,332 629.4,332L629.4,327.713C619.151,333.63 606.975,333.226 597.4,327.714L597.4,327.714C597.337,327.678 597.273,327.641 597.21,327.604C592.784,325.015 588.923,321.328 586.081,316.665C584.278,313.718 582.939,310.456 582.165,306.983C581.666,304.753 581.415,302.496 581.4,300.25ZM597.4,300C597.4,300.014 597.4,300.027 597.4,300.041C597.403,302.748 598.094,305.49 599.544,308C603.959,315.648 613.752,318.272 621.4,313.857C623.962,312.378 627.006,312.479 629.4,313.857L629.4,300C629.4,291.169 622.231,284 613.4,284C610.486,284 607.754,284.781 605.4,286.144C602.975,287.547 600.953,289.569 599.548,291.993C598.146,294.425 597.403,297.193 597.4,300Z" style="fill:white;"/>
    </g>
</svg>
