<?xml version="1.0" encoding="UTF-8" standalone="no"?>
<!DOCTYPE svg PUBLIC "-//W3C//DTD SVG 1.1//EN" "http://www.w3.org/Graphics/SVG/1.1/DTD/svg11.dtd">
<svg width="100%" height="100%" viewBox="0 0 128 128" version="1.1" xmlns="http://www.w3.org/2000/svg" xmlns:xlink="http://www.w3.org/1999/xlink" xml:space="preserve" xmlns:serif="http://www.serif.com/" style="fill-rule:evenodd;clip-rule:evenodd;stroke-linejoin:round;stroke-miterlimit:2;">
    <g transform="matrix(1.88235,0,0,1.88235,-52.7059,-86.5882)">
        <path d="M62,46C80.765,46 96,61.235 96,80C96,98.765 80.765,114 62,114C43.235,114 28,98.765 28,80C28,61.235 43.235,46 62,46ZM62,63C52.617,63 45,70.617 45,80C45,89.383 52.617,97 62,97C71.383,97 79,89.383 79,80C79,70.617 71.383,63 62,63Z" style="fill:white;"/>
    </g>
</svg>
