<?xml version="1.0" encoding="UTF-8" standalone="no"?>
<!DOCTYPE svg PUBLIC "-//W3C//DTD SVG 1.1//EN" "http://www.w3.org/Graphics/SVG/1.1/DTD/svg11.dtd">
<svg width="100%" height="100%" viewBox="0 0 129 129" version="1.1" xmlns="http://www.w3.org/2000/svg" xmlns:xlink="http://www.w3.org/1999/xlink" xml:space="preserve" xmlns:serif="http://www.serif.com/" style="fill-rule:evenodd;clip-rule:evenodd;stroke-linejoin:round;stroke-miterlimit:2;">
    <g transform="matrix(2,0,0,2,-1162.8,-536)">
        <path d="M645.4,332C641.157,332 637.087,330.315 634.086,327.314C631.086,324.313 629.4,320.244 629.4,316L629.4,300C629.4,291.169 622.231,284 613.4,284C604.569,284 597.4,291.169 597.4,300L597.4,332L589.4,332C585.016,332 581.45,328.465 581.4,324.092L581.4,300C581.4,282.339 595.739,268 613.4,268C631.061,268 645.4,282.339 645.4,300L645.4,332Z" style="fill:white;"/>
    </g>
</svg>
