<?xml version="1.0" encoding="UTF-8" standalone="no"?>
<!DOCTYPE svg PUBLIC "-//W3C//DTD SVG 1.1//EN" "http://www.w3.org/Graphics/SVG/1.1/DTD/svg11.dtd">
<svg width="100%" height="100%" viewBox="0 0 129 129" version="1.1" xmlns="http://www.w3.org/2000/svg" xmlns:xlink="http://www.w3.org/1999/xlink" xml:space="preserve" xmlns:serif="http://www.serif.com/" style="fill-rule:evenodd;clip-rule:evenodd;stroke-linejoin:round;stroke-miterlimit:2;">
    <g transform="matrix(1,0,0,1,-612,-1020)">
        <path d="M740.002,1084.06C739.955,1106.13 728.482,1127.6 708.001,1139.43C677.411,1157.09 638.237,1146.59 620.575,1116C602.914,1085.41 613.411,1046.24 644.001,1028.57C664.499,1016.74 688.85,1017.55 708.001,1028.57L692.001,1056.29C682.426,1050.77 670.25,1050.37 660.001,1056.29C644.706,1065.12 639.458,1084.7 648.288,1100C657.119,1115.3 676.706,1120.54 692.001,1111.71C702.25,1105.8 707.988,1095.05 708.002,1084C708.002,1075.17 715.171,1068 724.002,1068C732.833,1068 740.002,1075.17 740.002,1084C740.002,1084.02 740.002,1084.04 740.002,1084.06Z" style="fill:white;"/>
    </g>
</svg>
